<svg xmlns="http://www.w3.org/2000/svg" id="Capa_1" enable-background="new 0 0 32 32" viewBox="0 0 32 32" x="0px" y="0px" width="32px" height="32px" xmlns:xml="http://www.w3.org/XML/1998/namespace" xml:space="preserve" version="1.1">
<g>
	<g>
		<path fill="#2d2220" d="M 27.62 16.11 c -0.351 -0.09 -0.95 -0.22 -1.62 -0.36 C 25.98 13.13 23.85 11 21.22 11 c -0.47 0 -0.91 0.08 -1.34 0.21 C 19.27 7.69 16.19 5 12.5 5 C 8.36 5 5 8.36 5 12.5 c 0 0.57 0.07 1.13 0.19 1.66 C 2.79 14.75 1 16.92 1 19.5 C 1 22.53 3.47 25 6.5 25 h 19.98 C 28.97 25 31 22.97 31 20.48 C 31 18.42 29.61 16.62 27.62 16.11 Z M 26.48 24 H 6.5 C 4.02 24 2 21.98 2 19.5 S 4.02 15 6.5 15 C 6.18 14.23 6 13.39 6 12.5 C 6 8.91 8.91 6 12.5 6 S 19 8.91 19 12.5 l -0.01 0.24 C 19.61 12.28 20.38 12 21.22 12 c 2.09 0 3.78 1.69 3.78 3.78 c 0 0.27 -0.03 0.53 -0.08 0.77 c 0.99 0.2 1.97 0.4 2.45 0.53 c 1.51 0.39 2.63 1.77 2.63 3.4 C 30 22.42 28.42 24 26.48 24 Z" />
	</g>
	<g>
		<path fill="#31cfff" d="M 30 20.48 C 30 22.42 28.42 24 26.48 24 H 6.5 c -0.27 0 -0.53 -0.02 -0.78 -0.07 C 5.26 23.23 5 22.4 5 21.5 C 5 19.02 7.02 17 9.5 17 C 9.18 16.23 9 15.39 9 14.5 C 9 10.91 11.91 8 15.5 8 c 0.68 0 1.34 0.1 1.96 0.3 C 18.42 9.43 19 10.9 19 12.5 l -0.01 0.24 C 19.61 12.28 20.38 12 21.22 12 c 0.101 0 0.19 0 0.29 0.01 c 1.33 0.1 2.46 0.89 3.05 2.01 c 0.28 0.52 0.44 1.13 0.44 1.76 c 0 0.27 -0.03 0.53 -0.08 0.77 c 0.99 0.2 1.97 0.4 2.45 0.53 c 0.21 0.06 0.41 0.13 0.6 0.22 c 0.721 0.33 1.3 0.9 1.65 1.61 C 29.87 19.38 30 19.91 30 20.48 Z" />
	</g>
</g>
<g>
	<path fill="#31cfff" d="M 27 26.5 c 0 -0.276 0.224 -0.5 0.5 -0.5 h 3 c 0.276 0 0.5 0.224 0.5 0.5 l 0 0 c 0 0.276 -0.224 0.5 -0.5 0.5 h -3 C 27.224 27 27 26.776 27 26.5 L 27 26.5 Z" />
</g>
<g>
	<path fill="#31cfff" d="M 1 26.5 C 1 26.224 1.224 26 1.5 26 h 23 c 0.276 0 0.5 0.224 0.5 0.5 l 0 0 c 0 0.276 -0.224 0.5 -0.5 0.5 h -23 C 1.224 27 1 26.776 1 26.5 L 1 26.5 Z" />
</g>
<g>
	<path fill="#31cfff" d="M 12 28.5 c 0 -0.276 0.224 -0.5 0.5 -0.5 h 18 c 0.276 0 0.5 0.224 0.5 0.5 l 0 0 c 0 0.276 -0.224 0.5 -0.5 0.5 h -18 C 12.224 29 12 28.776 12 28.5 L 12 28.5 Z" />
</g>
<g>
	<path fill="#31cfff" d="M 5 28.5 C 5 28.224 5.224 28 5.5 28 h 4 c 0.276 0 0.5 0.224 0.5 0.5 l 0 0 c 0 0.276 -0.224 0.5 -0.5 0.5 h -4 C 5.224 29 5 28.776 5 28.5 L 5 28.5 Z" />
</g>
<g>
	<path fill="#2d2220" d="M 7.5 13 C 7.224 13 7 12.776 7 12.5 C 7 7.063 11.455 7 11.5 7 C 11.776 7 12 7.224 12 7.5 C 12 7.776 11.777 8 11.501 8 C 11.346 8.001 8 8.089 8 12.5 C 8 12.776 7.776 13 7.5 13 Z" />
</g>
<g>
	<circle fill="#2d2220" cx="13.5" cy="7.5" r="0.5" />
</g>
<g>
	<path fill="#2d2220" d="M 27 22.5 c 0 -0.276 -0.224 -0.5 -0.5 -0.5 h -7 c -0.276 0 -0.5 0.224 -0.5 0.5 l 0 0 c 0 0.276 0.224 0.5 0.5 0.5 h 7 C 26.776 23 27 22.776 27 22.5 L 27 22.5 Z" />
</g>
<g>
	<path fill="#2d2220" d="M 16 22.5 c 0 -0.276 0.224 -0.5 0.5 -0.5 h 1 c 0.276 0 0.5 0.224 0.5 0.5 l 0 0 c 0 0.276 -0.224 0.5 -0.5 0.5 h -1 C 16.224 23 16 22.776 16 22.5 L 16 22.5 Z" />
</g>
</svg>