<svg xmlns="http://www.w3.org/2000/svg" id="Capa_1" enable-background="new 0 0 32 32" viewBox="0 0 32 32" x="0px" y="0px" width="32px" height="32px" xmlns:xml="http://www.w3.org/XML/1998/namespace" xml:space="preserve" version="1.1">
<path fill="#2d2220" d="M 15.63 3.98 C 15.23 3.98 15 4 15 4 S 4 5 4 17 c 0 0 0 7 4 7 c 3.5 0 3.94 -5.36 6 -5.36 c 0.3 0 0.62 0.11 1 0.36 c 3 2 -7 5 -4 8 c 0.79 0.79 2.36 1.24 4.23 1.24 C 20.44 28.24 28 24.82 28 16 C 28 4.73 18.24 3.98 15.63 3.98 Z M 15.23 27.24 c -1.59 0 -2.94 -0.36 -3.52 -0.95 c -0.29 -0.29 -0.28 -0.46 -0.28 -0.51 c 0.05 -0.69 1.44 -1.78 2.46 -2.58 c 1.46 -1.15 2.73 -2.13 2.68 -3.42 c -0.02 -0.44 -0.21 -1.07 -1.01 -1.61 c -0.53 -0.35 -1.05 -0.53 -1.56 -0.53 c -1.47 0 -2.25 1.351 -3.02 2.65 C 10.03 21.93 9.31 23 8 23 c -2.91 0 -3 -5.94 -3 -6 C 5 6.08 14.68 5.04 15.08 5 c 0.01 0 0.21 -0.02 0.55 -0.02 C 18.3 4.98 27 5.78 27 16 C 27 24.25 19.96 27.24 15.23 27.24 Z" />
<path fill="#ffd561" d="M 25.07 9.16 C 22.4 7.22 19.1 6.98 17.63 6.98 C 17.29 6.98 17.09 7 17.08 7 C 16.68 7.04 7 8.08 7 19 c 0 0.04 0.03 2.25 0.72 3.98 C 7.81 22.99 7.9 23 8 23 c 1.31 0 2.03 -1.07 2.98 -2.71 c 0.77 -1.3 1.55 -2.65 3.02 -2.65 c 0.51 0 1.03 0.181 1.56 0.53 c 0.76 0.521 0.97 1.11 1 1.55 c 0.01 0.021 0.01 0.04 0.01 0.061 c 0.05 1.29 -1.22 2.27 -2.68 3.42 c -1.02 0.8 -2.41 1.89 -2.46 2.58 c 0 0.05 -0.01 0.22 0.28 0.51 c 0.39 0.4 1.12 0.69 2.05 0.83 c 0.45 0.08 0.95 0.12 1.47 0.12 C 19.96 27.24 27 24.25 27 16 C 27 12.96 26.23 10.75 25.07 9.16 Z M 13 13 c -1.1 0 -2 -0.9 -2 -2 s 0.9 -2 2 -2 s 2 0.9 2 2 S 14.1 13 13 13 Z M 21 22 c -1.1 0 -2 -0.9 -2 -2 s 0.9 -2 2 -2 s 2 0.9 2 2 S 22.1 22 21 22 Z M 21 14 c -1.1 0 -2 -0.9 -2 -2 s 0.9 -2 2 -2 s 2 0.9 2 2 S 22.1 14 21 14 Z" />
<path fill="#2d2220" d="M 8 15 c -1.1 0 -2 0.9 -2 2 c 0 1.1 0.9 2 2 2 s 2 -0.9 2 -2 C 10 15.9 9.1 15 8 15 Z M 8 18 c -0.55 0 -1 -0.45 -1 -1 s 0.45 -1 1 -1 s 1 0.45 1 1 S 8.55 18 8 18 Z" />
<circle fill="#31cfff" cx="8" cy="17" r="1" />
<path fill="#2d2220" d="M 13 8 c -1.66 0 -3 1.34 -3 3 s 1.34 3 3 3 s 3 -1.34 3 -3 S 14.66 8 13 8 Z M 13 13 c -1.1 0 -2 -0.9 -2 -2 s 0.9 -2 2 -2 s 2 0.9 2 2 S 14.1 13 13 13 Z" />
<path fill="#e371ff" d="M 15 11 c 0 1.1 -0.9 2 -2 2 c -0.29 0 -0.57 -0.06 -0.82 -0.18 C 12.06 12.57 12 12.29 12 12 c 0 -1.1 0.9 -2 2 -2 c 0.29 0 0.57 0.06 0.82 0.18 C 14.94 10.43 15 10.71 15 11 Z" />
<path fill="#2d2220" d="M 21 9 c -1.66 0 -3 1.34 -3 3 s 1.34 3 3 3 s 3 -1.34 3 -3 S 22.66 9 21 9 Z M 21 14 c -1.1 0 -2 -0.9 -2 -2 s 0.9 -2 2 -2 s 2 0.9 2 2 S 22.1 14 21 14 Z" />
<path fill="#ff6b43" d="M 23 12 c 0 1.1 -0.9 2 -2 2 c -0.29 0 -0.57 -0.06 -0.82 -0.18 C 20.06 13.57 20 13.29 20 13 c 0 -1.1 0.9 -2 2 -2 c 0.29 0 0.57 0.06 0.82 0.18 C 22.94 11.43 23 11.71 23 12 Z" />
<path fill="#2d2220" d="M 21 17 c -1.66 0 -3 1.34 -3 3 s 1.34 3 3 3 s 3 -1.34 3 -3 S 22.66 17 21 17 Z M 21 22 c -1.1 0 -2 -0.9 -2 -2 s 0.9 -2 2 -2 s 2 0.9 2 2 S 22.1 22 21 22 Z" />
<path fill="#ffa28d" d="M 23 20 c 0 1.1 -0.9 2 -2 2 c -0.29 0 -0.57 -0.06 -0.82 -0.18 C 20.06 21.57 20 21.29 20 21 c 0 -1.1 0.9 -2 2 -2 c 0.29 0 0.57 0.06 0.82 0.18 C 22.94 19.43 23 19.71 23 20 Z" />
</svg>
