<svg xmlns="http://www.w3.org/2000/svg" id="Capa_1" enable-background="new 0 0 32 32" viewBox="0 0 32 32" x="0px" y="0px" width="32px" height="32px" xmlns:xml="http://www.w3.org/XML/1998/namespace" xml:space="preserve" version="1.1">
<path fill="#ffa28d" d="M 15 15.5 c 0 -0.276 0.224 -0.5 0.5 -0.5 h 8 c 0.276 0 0.5 0.224 0.5 0.5 l 0 0 c 0 0.276 -0.224 0.5 -0.5 0.5 h -8 C 15.224 16 15 15.776 15 15.5 L 15 15.5 Z" />
<path fill="#ffa28d" d="M 22.89 17 c -0.51 4.8 -2.939 8.08 -7.01 8.83 c -3.94 -0.84 -6.29 -4.1 -6.78 -8.83 H 22.89 Z" />
<path fill="#ffa28d" d="M 19.934 3.22 c -0.16 -0.22 -0.469 -0.29 -0.699 -0.14 c -0.23 0.16 -0.289 0.47 -0.141 0.7 c 1.17 1.75 1.121 3.21 0.301 4.17 c -0.25 0.3 -0.471 0.49 -0.811 0.7 c -0.459 0.27 -0.939 0.56 -1.25 1.09 c -0.51 0.88 -0.43 1.95 0.23 3.02 c 0.09 0.16 0.25 0.24 0.42 0.24 l 0.26 -0.07 c 0.24 -0.15 0.311 -0.46 0.17 -0.69 c -0.33 -0.53 -0.631 -1.3 -0.219 -2 c 0.189 -0.31 0.52 -0.51 0.898 -0.73 c 0.381 -0.23 0.701 -0.49 1.061 -0.91 C 21.514 7.01 21.094 4.96 19.934 3.22 Z" />
<path fill="#ffa28d" d="M 14.904 2.21 c -0.15 -0.22 -0.47 -0.28 -0.69 -0.12 c -0.23 0.16 -0.28 0.47 -0.12 0.7 c 0.5 0.72 1.01 1.84 0.89 2.8 c -0.13 1.09 -0.96 1.33 -2.38 1.64 c -0.43 0.1 -0.86 0.19 -1.27 0.33 c -1.21 0.42 -1.93 1.08 -2.19 2.02 c -0.31 1.07 -0.11 2.36 0.49 3.21 c 0.1 0.14 0.25 0.21 0.41 0.21 c 0.1 0 0.2 -0.03 0.29 -0.09 c 0.23 -0.16 0.28 -0.47 0.12 -0.7 c -0.42 -0.59 -0.57 -1.58 -0.35 -2.36 c 0.17 -0.61 0.67 -1.04 1.56 -1.35 c 0.35 -0.12 0.74 -0.2 1.15 -0.29 c 1.33 -0.29 2.93 -0.65 3.17 -2.5 C 16.165 4.14 15.205 2.63 14.904 2.21 Z" />
<path fill="#2d2220" d="M 18.93 3.22 C 18.77 3 18.46 2.93 18.23 3.08 C 18 3.24 17.94 3.55 18.09 3.78 c 1.17 1.75 1.12 3.21 0.3 4.17 c -0.25 0.3 -0.47 0.49 -0.81 0.7 c -0.46 0.27 -0.94 0.56 -1.25 1.09 c -0.51 0.88 -0.43 1.95 0.23 3.02 c 0.09 0.16 0.25 0.24 0.42 0.24 l 0.26 -0.07 c 0.24 -0.15 0.31 -0.46 0.17 -0.69 c -0.33 -0.53 -0.63 -1.3 -0.22 -2 c 0.189 -0.31 0.52 -0.51 0.899 -0.73 c 0.38 -0.23 0.7 -0.49 1.061 -0.91 C 20.51 7.01 20.09 4.96 18.93 3.22 Z" />
<path fill="#2d2220" d="M 13.9 2.21 c -0.15 -0.22 -0.47 -0.28 -0.69 -0.12 c -0.23 0.16 -0.28 0.47 -0.12 0.7 c 0.5 0.72 1.01 1.84 0.89 2.8 c -0.13 1.09 -0.96 1.33 -2.38 1.64 c -0.43 0.1 -0.86 0.19 -1.27 0.33 C 9.12 7.98 8.4 8.64 8.14 9.58 c -0.31 1.07 -0.11 2.36 0.49 3.21 C 8.73 12.93 8.88 13 9.04 13 c 0.1 0 0.2 -0.03 0.29 -0.09 c 0.23 -0.16 0.28 -0.47 0.12 -0.7 c -0.42 -0.59 -0.57 -1.58 -0.35 -2.36 c 0.17 -0.61 0.67 -1.04 1.56 -1.35 c 0.35 -0.12 0.74 -0.2 1.15 -0.29 c 1.33 -0.29 2.93 -0.65 3.17 -2.5 C 15.16 4.14 14.2 2.63 13.9 2.21 Z" />
<g>
	<path fill="#2d2220" d="M 23.97 16.01 C 23.98 15.68 24 15.35 24 15 c 0 -0.55 -0.45 -1 -1 -1 H 5 c -0.55 0 -1 0.45 -1 1 c 0 5.59 2.08 9.33 5.47 11 H 9 c -0.28 0 -0.5 0.22 -0.5 0.5 S 8.72 27 9 27 h 10 c 0.28 0 0.5 -0.22 0.5 -0.5 S 19.28 26 19 26 h -0.47 c 0.56 -0.28 1.09 -0.61 1.58 -1 c 6.83 -0.04 7.949 -3.72 7.949 -5.5 C 28.06 17.08 26.49 16.07 23.97 16.01 Z M 14 26 c -5.8 0 -9 -4.37 -9 -11 h 18 c 0 1.45 -0.15 2.79 -0.46 4 H 16.5 c -0.28 0 -0.5 0.22 -0.5 0.5 s 0.22 0.5 0.5 0.5 h 5.75 c -0.24 0.73 -0.55 1.4 -0.91 2 H 17.5 c -0.28 0 -0.5 0.22 -0.5 0.5 s 0.22 0.5 0.5 0.5 h 3.16 C 19.14 24.91 16.89 26 14 26 Z M 21.21 23.95 c 1.46 -1.67 2.39 -4 2.68 -6.95 c 2.721 0.05 3.051 1.23 3.051 2.5 C 26.94 20.28 26.69 23.48 21.21 23.95 Z" />
</g>
<rect fill="#2d2220" x="5" y="16" width="18" height="1" />
</svg>